<?xml version="1.0" encoding="UTF-8" standalone="no"?>
<!-- Created with Inkscape (http://www.inkscape.org/) -->

<svg
   xmlns:dc="http://purl.org/dc/elements/1.1/"
   xmlns:cc="http://creativecommons.org/ns#"
   xmlns:rdf="http://www.w3.org/1999/02/22-rdf-syntax-ns#"
   xmlns:svg="http://www.w3.org/2000/svg"
   xmlns="http://www.w3.org/2000/svg"
   xmlns:sodipodi="http://sodipodi.sourceforge.net/DTD/sodipodi-0.dtd"
   xmlns:inkscape="http://www.inkscape.org/namespaces/inkscape"
   width="744.09448819"
   height="1052.3622047"
   id="svg2"
   version="1.1"
   inkscape:version="0.48.5 r10040"
   sodipodi:docname="New document 1">
  <defs
     id="defs4" />
  <sodipodi:namedview
     id="base"
     pagecolor="#ffffff"
     bordercolor="#666666"
     borderopacity="1.0"
     inkscape:pageopacity="0.0"
     inkscape:pageshadow="2"
     inkscape:zoom="0.175"
     inkscape:cx="2429.0081"
     inkscape:cy="-85.870841"
     inkscape:document-units="px"
     inkscape:current-layer="g3367"
     showgrid="false"
     inkscape:window-width="1440"
     inkscape:window-height="900"
     inkscape:window-x="-8"
     inkscape:window-y="-8"
     inkscape:window-maximized="1" />
  <metadata
     id="metadata7">
    <rdf:RDF>
      <cc:Work
         rdf:about="">
        <dc:format>image/svg+xml</dc:format>
        <dc:type
           rdf:resource="http://purl.org/dc/dcmitype/StillImage" />
        <dc:title></dc:title>
      </cc:Work>
    </rdf:RDF>
  </metadata>
  <g
     inkscape:label="Layer 1"
     inkscape:groupmode="layer"
     id="layer1">
    <g
       id="g3367"
       transform="matrix(0,1,-1,0,961.52159,844.8723)">
      <text
         transform="matrix(0,-1,1,0,0,0)"
         id="text3468"
         x="-3788.8669"
         y="868.99738"
         style="font-size:15px">
        <tspan
           style="font-size:15px;font-variant:normal;font-weight:normal;writing-mode:lr-tb;fill:#000000;fill-opacity:1;fill-rule:nonzero;stroke:none;font-family:Helvetica;-inkscape-font-specification:Helvetica"
           x="-3788.8669 -3778.0369 -3769.697 -3765.5269 -3761.3569 -3747.197 -3743.8669 -3735.5269 -3731.3569 -3723.0168 -3718.8469 -3714.677 -3706.3369 -3702.167 -3693.8269 -3685.4868 -3677.147 -3668.8069 -3656.312"
           y="868.99738"
           sodipodi:role="line"
           id="tspan3470">Cut Width: 0.0000mm</tspan>
      </text>
      <text
         transform="matrix(0,-1,1,0,0,0)"
         id="text3472"
         x="-3788.8669"
         y="886.71393"
         style="font-size:15px">
        <tspan
           style="font-size:15px;font-variant:normal;font-weight:normal;writing-mode:lr-tb;fill:#000000;fill-opacity:1;fill-rule:nonzero;stroke:none;font-family:Helvetica;-inkscape-font-specification:Helvetica"
           x="-3788.8669 -3776.3718 -3768.032 -3763.8618 -3755.522 -3750.5269 -3747.197 -3738.8569 -3735.5269 -3731.3569 -3722.1919 -3713.8518 -3710.522 -3703.022 -3695.522 -3687.1819 -3678.8418 -3671.3418 -3663.8418 -3659.6719 -3655.502 -3647.1619 -3642.9919 -3634.6519 -3626.312 -3617.9719 -3609.6318 -3597.137"
           y="886.71393"
           sodipodi:role="line"
           id="tspan3474">Material Thickness: 6.3500mm</tspan>
      </text>
      <text
         transform="matrix(0,-1,1,0,0,0)"
         id="text3476"
         x="-3788.8669"
         y="904.43048"
         style="font-size:15px">
        <tspan
           style="font-size:15px;font-variant:normal;font-weight:normal;writing-mode:lr-tb;fill:#000000;fill-opacity:1;fill-rule:nonzero;stroke:none;font-family:Helvetica;-inkscape-font-specification:Helvetica"
           x="-3788.8669 -3774.7068 -3770.5369 -3763.0369 -3758.8669 -3748.0369 -3743.8669 -3736.3669 -3732.197 -3721.3669 -3717.197 -3713.0269 -3704.687 -3696.3469 -3688.0068 -3683.8369 -3675.4968 -3667.157 -3654.6619 -3642.167 -3637.9968 -3630.4968 -3626.3269 -3617.9868 -3609.647 -3601.3069 -3597.137 -3588.7969 -3580.4568 -3567.9619 -3555.4668 -3551.2969 -3543.7969 -3539.627 -3531.2869 -3522.947 -3514.6069 -3510.437 -3502.0969 -3493.7568 -3481.262"
           y="904.43048"
           sodipodi:role="line"
           id="tspan3478">W x D x H: 212.00mm x 212.00mm x 100.00mm</tspan>
      </text>
      <text
         transform="matrix(0,-1,1,0,0,0)"
         id="text3480"
         x="-3788.8669"
         y="922.14697"
         style="font-size:15px">
        <tspan
           style="font-size:15px;font-variant:normal;font-weight:normal;writing-mode:lr-tb;fill:#000000;fill-opacity:1;fill-rule:nonzero;stroke:none;font-family:Helvetica;-inkscape-font-specification:Helvetica"
           x="-3788.8669 -3778.8618 -3773.8669 -3765.5269 -3757.187 -3748.8469 -3741.3469 -3733.0068 -3724.667 -3720.4968 -3712.157 -3704.657 -3700.4868 -3690.4819 -3682.1418 -3674.6418 -3662.147 -3653.8069 -3646.3069 -3637.9668 -3632.9719 -3628.802 -3621.302 -3612.9619 -3608.792 -3600.4519 -3596.282 -3587.9419 -3583.772 -3575.4319 -3567.0918 -3562.9219 -3554.5818 -3546.2419 -3542.0718 -3533.7319 -3525.3918 -3521.2219 -3512.8818 -3504.542 -3496.2019 -3487.8618 -3483.6919 -3475.3518 -3471.1819 -3467.012 -3458.6719 -3450.3318 -3446.1619 -3437.822 -3429.4819 -3425.312 -3416.9719"
           y="922.14697"
           sodipodi:role="line"
           id="tspan3482">Produced by BoxMaker v2.0.1 on 04/08/2015 at 20:09:37</tspan>
      </text>
      <text
         transform="matrix(0,-1,1,0,0,0)"
         id="text3484"
         x="-3788.8669"
         y="939.86353"
         style="font-size:15px">
        <tspan
           style="font-size:15px;font-variant:normal;font-weight:normal;writing-mode:lr-tb;fill:#000000;fill-opacity:1;fill-rule:nonzero;stroke:none;font-family:Helvetica;-inkscape-font-specification:Helvetica"
           x="-3788.8669 -3780.5269 -3776.3569 -3772.187 -3763.8469 -3759.677 -3755.5068 -3751.3369 -3742.9968 -3734.657 -3727.157 -3714.6619 -3706.3218 -3698.8218 -3690.4819 -3685.4868 -3681.3169 -3673.8169 -3665.4768 -3657.137 -3648.7969 -3640.4568 -3632.9568 -3628.7869 -3625.4568 -3617.1169 -3608.7769 -3605.447 -3597.1069 -3588.7668 -3584.5969 -3576.2568 -3571.262"
           y="939.86353"
           sodipodi:role="line"
           id="tspan3486">http://boxmaker.connectionlab.org</tspan>
      </text>
      <path
         inkscape:connector-curvature="0"
         d="m -1898.5216,232.77759 -118.1103,0 m 118.1103,-22.5 0,22.5 m 118.1102,-22.5 -118.1102,0 m 118.1102,0 0,22.5 m 118.1102,0 -118.1102,0 m -118.1102,728.6815 -118.1103,0 m 118.1103,-22.5 0,22.5 m 118.1102,-22.5 -118.1102,0 m 118.1102,0 0,22.5 m 118.1102,0 -118.1102,0 m -236.2205,-643.869 0,-84.8125 m 0,84.8125 22.5,0 m 0,107.3113 0,-107.3113 m -22.5,107.3113 22.5,0 m -22.5,107.3112 0,-107.3112 m 0,107.3112 22.5,0 m 0,107.3118 0,-107.3118 m -22.5,107.3118 22.5,0 m -22.5,107.3116 0,-107.3116 m 0,107.3116 22.5,0 m 0,107.3115 0,-107.3115 m -22.5,107.3115 22.5,0 m -22.5,107.3116 0,-107.3116 m 354.3307,-536.5574 0,-84.8125 m -22.5,84.8125 22.5,0 m -22.5,107.3113 0,-107.3113 m 0,107.3113 22.5,0 m 0,107.3112 0,-107.3112 m -22.5,107.3112 22.5,0 m -22.5,107.3118 0,-107.3118 m 0,107.3118 22.5,0 m 0,107.3116 0,-107.3116 m -22.5,107.3116 22.5,0 m -22.5,107.3115 0,-107.3115 m 0,107.3115 22.5,0 m 0,107.3116 0,-107.3116"
         style="fill:none;stroke:#000000;stroke-width:0.125;stroke-linecap:butt;stroke-linejoin:miter;stroke-miterlimit:10;stroke-opacity:1;stroke-dasharray:none"
         id="path3558" />
      <path
         inkscape:connector-curvature="0"
         d="m -2258.2855,232.77809 -118.1101,0 m 118.1101,-22.5 0,22.5 m 118.1103,-22.5 -118.1103,0 m 118.1103,0 0,22.5 m 118.1102,0 -118.1102,0 m -118.1103,728.681 -118.1101,0 m 118.1101,-22.5 0,22.5 m 118.1103,-22.5 -118.1103,0 m 118.1103,0 0,22.5 m 118.1102,0 -118.1102,0 m -236.2204,-643.8695 0,-84.8115 m 0,84.8115 22.5,0 m 0,107.3116 0,-107.3116 m -22.5,107.3116 22.5,0 m -22.5,107.3116 0,-107.3116 m 0,107.3116 22.5,0 m 0,107.3115 0,-107.3115 m -22.5,107.3115 22.5,0 m -22.5,107.3117 0,-107.3117 m 0,107.3117 22.5,0 m 0,107.3116 0,-107.3116 m -22.5,107.3116 22.5,0 m -22.5,107.3115 0,-107.3115 m 354.3306,-536.558 0,-84.8115 m -22.5,84.8115 22.5,0 m -22.5,107.3116 0,-107.3116 m 0,107.3116 22.5,0 m 0,107.3116 0,-107.3116 m -22.5,107.3116 22.5,0 m -22.5,107.3115 0,-107.3115 m 0,107.3115 22.5,0 m 0,107.3117 0,-107.3117 m -22.5,107.3117 22.5,0 m -22.5,107.3116 0,-107.3116 m 0,107.3116 22.5,0 m 0,107.3115 0,-107.3115"
         style="fill:none;stroke:#000000;stroke-width:0.125;stroke-linecap:butt;stroke-linejoin:miter;stroke-miterlimit:10;stroke-opacity:1;stroke-dasharray:none"
         id="path3630" />
      <path
         inkscape:connector-curvature="0"
         d="m -436.44212,232.77763 -84.81163,0 m 84.81163,-22.5 0,22.5 m 107.31163,-22.5 -107.31163,0 m 107.31163,0 0,22.5 m 107.3115,0 -107.3115,0 m 107.3115,-22.5 0,22.5 m 107.31162,-22.5 -107.31162,0 m 107.31162,0 0,22.5 m 107.311625,0 -107.311625,0 m 107.311625,-22.5 0,22.5 m 107.311625,-22.5 -107.311625,0 m 107.311625,0 0,22.5 m 84.8115,0 -84.8115,0 m -536.558,706.1815 -84.81163,0 m 84.81163,0 0,22.5 m 107.31163,0 -107.31163,0 m 107.31163,-22.5 0,22.5 m 107.3115,-22.5 -107.3115,0 m 107.3115,0 0,22.5 m 107.31162,0 -107.31162,0 m 107.31162,-22.5 0,22.5 m 107.311625,-22.5 -107.311625,0 m 107.311625,0 0,22.5 m 107.311625,0 -107.311625,0 m 107.311625,-22.5 0,22.5 m 84.8115,-22.5 -84.8115,0 m -621.36963,-621.369 0,-84.8125 m -22.5,84.8125 22.5,0 m -22.5,107.31125 0,-107.31125 m 0,107.31125 22.5,0 m 0,107.31125 0,-107.31125 m -22.5,107.31125 22.5,0 m -22.5,107.31175 0,-107.31175 m 0,107.31175 22.5,0 m 0,107.31162 0,-107.31162 m -22.5,107.31162 22.5,0 m -22.5,107.3115 0,-107.3115 m 0,107.3115 22.5,0 m 0,84.81163 0,-84.81163 m 706.18113,-536.55737 0,-84.8125 m 0,84.8125 22.5,0 m 0,107.31125 0,-107.31125 m -22.5,107.31125 22.5,0 m -22.5,107.31125 0,-107.31125 m 0,107.31125 22.5,0 m 0,107.31175 0,-107.31175 m -22.5,107.31175 22.5,0 m -22.5,107.31162 0,-107.31162 m 0,107.31162 22.5,0 m 0,107.3115 0,-107.3115 m -22.5,107.3115 22.5,0 m -22.5,84.81163 0,-84.81163"
         style="fill:none;stroke:#000000;stroke-width:0.125;stroke-linecap:butt;stroke-linejoin:miter;stroke-miterlimit:10;stroke-opacity:1;stroke-dasharray:none"
         id="path3734" />
      <path
         inkscape:connector-curvature="0"
         d="m -2619.7141,232.77789 -118.1102,0 m 118.1102,-22.5 0,22.5 m 118.1102,-22.5 -118.1102,0 m 118.1102,0 0,22.5 m 118.1103,0 -118.1103,0 m -118.1102,728.6812 -118.1102,0 m 118.1102,-22.5 0,22.5 m 118.1102,-22.5 -118.1102,0 m 118.1102,0 0,22.5 m 118.1103,0 -118.1103,0 m -236.2204,-643.87 0,-84.8112 m 0,84.8112 22.5,0 m 0,107.3125 0,-107.3125 m -22.5,107.3125 22.5,0 m -22.5,107.3113 0,-107.3113 m 0,107.3113 22.5,0 m 0,107.3112 0,-107.3112 m -22.5,107.3112 22.5,0 m -22.5,107.3113 0,-107.3113 m 0,107.3113 22.5,0 m 0,107.3125 0,-107.3125 m -22.5,107.3125 22.5,0 m -22.5,107.3112 0,-107.3112 m 354.3307,-536.5588 0,-84.8112 m -22.5,84.8112 22.5,0 m -22.5,107.3125 0,-107.3125 m 0,107.3125 22.5,0 m 0,107.3113 0,-107.3113 m -22.5,107.3113 22.5,0 m -22.5,107.3112 0,-107.3112 m 0,107.3112 22.5,0 m 0,107.3113 0,-107.3113 m -22.5,107.3113 22.5,0 m -22.5,107.3125 0,-107.3125 m 0,107.3125 22.5,0 m 0,107.3112 0,-107.3112"
         style="fill:none;stroke:#000000;stroke-width:0.125;stroke-linecap:butt;stroke-linejoin:miter;stroke-miterlimit:10;stroke-opacity:1;stroke-dasharray:none"
         id="path3806" />
      <path
         inkscape:connector-curvature="0"
         d="m -783.407,232.77763 -118.11,0 m 118.11,-22.5 0,22.5 m 118.11001,-22.5 -118.11001,0 m 118.11001,0 0,22.5 m 118.11025,0 -118.11025,0 m -118.11001,728.6815 -118.11,0 m 118.11,-22.5 0,22.5 m 118.11001,-22.5 -118.11001,0 m 118.11001,0 0,22.5 m 118.11025,0 -118.11025,0 m -236.22,-643.869 0,-84.8125 m 0,84.8125 22.5,0 m 0,107.31125 0,-107.31125 m -22.5,107.31125 22.5,0 m -22.5,107.31125 0,-107.31125 m 0,107.31125 22.5,0 m 0,107.31175 0,-107.31175 m -22.5,107.31175 22.5,0 m -22.5,107.31162 0,-107.31162 m 0,107.31162 22.5,0 m 0,107.3115 0,-107.3115 m -22.5,107.3115 22.5,0 m -22.5,107.31163 0,-107.31163 m 354.33025,-536.55737 0,-84.8125 m -22.5,84.8125 22.5,0 m -22.5,107.31125 0,-107.31125 m 0,107.31125 22.5,0 m 0,107.31125 0,-107.31125 m -22.5,107.31125 22.5,0 m -22.5,107.31175 0,-107.31175 m 0,107.31175 22.5,0 m 0,107.31162 0,-107.31162 m -22.5,107.31162 22.5,0 m -22.5,107.3115 0,-107.3115 m 0,107.3115 22.5,0 m 0,107.31163 0,-107.31163"
         style="fill:none;stroke:#000000;stroke-width:0.125;stroke-linecap:butt;stroke-linejoin:miter;stroke-miterlimit:10;stroke-opacity:1;stroke-dasharray:none"
         id="path3878" />
      <path
         inkscape:connector-curvature="0"
         d="m -1548.8195,232.77763 -84.8125,0 m 84.8125,-22.5 0,22.5 m 107.3113,-22.5 -107.3113,0 m 107.3113,0 0,22.5 m 107.3112,0 -107.3112,0 m 107.3112,-22.5 0,22.5 m 107.3113,-22.5 -107.3113,0 m 107.3113,0 0,22.5 m 107.3125,0 -107.3125,0 m 107.3125,-22.5 0,22.5 m 107.3112,-22.5 -107.3112,0 m 107.3112,0 0,22.5 m 84.81125,0 -84.81125,0 m -536.5575,706.1815 -84.8125,0 m 84.8125,0 0,22.5 m 107.3113,0 -107.3113,0 m 107.3113,-22.5 0,22.5 m 107.3112,-22.5 -107.3112,0 m 107.3112,0 0,22.5 m 107.3113,0 -107.3113,0 m 107.3113,-22.5 0,22.5 m 107.3125,-22.5 -107.3125,0 m 107.3125,0 0,22.5 m 107.3112,0 -107.3112,0 m 107.3112,-22.5 0,22.5 m 84.81125,-22.5 -84.81125,0 m -621.37,-621.369 0,-84.8125 m -22.5,84.8125 22.5,0 m -22.5,107.31125 0,-107.31125 m 0,107.31125 22.5,0 m 0,107.31125 0,-107.31125 m -22.5,107.31125 22.5,0 m -22.5,107.31175 0,-107.31175 m 0,107.31175 22.5,0 m 0,107.31162 0,-107.31162 m -22.5,107.31162 22.5,0 m -22.5,107.3115 0,-107.3115 m 0,107.3115 22.5,0 m 0,84.81163 0,-84.81163 m 706.18125,-536.55737 0,-84.8125 m 0,84.8125 22.5,0 m 0,107.31125 0,-107.31125 m -22.5,107.31125 22.5,0 m -22.5,107.31125 0,-107.31125 m 0,107.31125 22.5,0 m 0,107.31175 0,-107.31175 m -22.5,107.31175 22.5,0 m -22.5,107.31162 0,-107.31162 m 0,107.31162 22.5,0 m 0,107.3115 0,-107.3115 m -22.5,107.3115 22.5,0 m -22.5,84.81163 0,-84.81163"
         style="fill:none;stroke:#000000;stroke-width:0.125;stroke-linecap:butt;stroke-linejoin:miter;stroke-miterlimit:10;stroke-opacity:1;stroke-dasharray:none"
         id="path3982" />
    </g>
    <path
       sodipodi:type="arc"
       style="color:#000000;fill:none;stroke:#ff0000;stroke-width:0.04549504000000000;stroke-linecap:butt;stroke-linejoin:miter;stroke-miterlimit:4;stroke-opacity:1;stroke-dasharray:none;stroke-dashoffset:0;marker:none;visibility:visible;display:inline;overflow:visible;enable-background:accumulate"
       id="path2989-4"
       sodipodi:cx="106.96429"
       sodipodi:cy="315.04074"
       sodipodi:rx="32.67857"
       sodipodi:ry="15.535714"
       d="m 139.64286,315.04074 a 32.67857,15.535714 0 1 1 -65.357143,0 32.67857,15.535714 0 1 1 65.357143,0 z"
       transform="matrix(-1.5155492,0,0,3.1878791,326.36065,-115.96043)" />
    <path
       sodipodi:type="arc"
       style="color:#000000;fill:none;stroke:#ff0000;stroke-width:0.04549504000000000;stroke-linecap:butt;stroke-linejoin:miter;stroke-miterlimit:4;stroke-opacity:1;stroke-dasharray:none;stroke-dashoffset:0;marker:none;visibility:visible;display:inline;overflow:visible;enable-background:accumulate"
       id="path2989-1-0"
       sodipodi:cx="106.96429"
       sodipodi:cy="315.04074"
       sodipodi:rx="32.67857"
       sodipodi:ry="15.535714"
       d="m 139.64286,315.04074 a 32.67857,15.535714 0 1 1 -65.357143,0 32.67857,15.535714 0 1 1 65.357143,0 z"
       transform="matrix(-1.5155492,0,0,3.1878791,326.36065,-256.65619)" />
    <path
       sodipodi:type="arc"
       style="color:#000000;fill:none;stroke:#ff0000;stroke-width:0.04549504000000000;stroke-linecap:butt;stroke-linejoin:miter;stroke-miterlimit:4;stroke-opacity:1;stroke-dasharray:none;stroke-dashoffset:0;marker:none;visibility:visible;display:inline;overflow:visible;enable-background:accumulate"
       id="path2989-7-9"
       sodipodi:cx="106.96429"
       sodipodi:cy="315.04074"
       sodipodi:rx="32.67857"
       sodipodi:ry="15.535714"
       d="m 139.64286,315.04074 a 32.67857,15.535714 0 1 1 -65.357143,0 32.67857,15.535714 0 1 1 65.357143,0 z"
       transform="matrix(-1.5155492,0,0,3.1878791,325.08395,-398.38848)" />
    <path
       sodipodi:type="arc"
       style="color:#000000;fill:none;stroke:#ff0000;stroke-width:0.04549504000000000;stroke-linecap:butt;stroke-linejoin:miter;stroke-miterlimit:4;stroke-opacity:1;stroke-dasharray:none;stroke-dashoffset:0;marker:none;visibility:visible;display:inline;overflow:visible;enable-background:accumulate"
       id="path2989-1-0-4"
       sodipodi:cx="106.96429"
       sodipodi:cy="315.04074"
       sodipodi:rx="32.67857"
       sodipodi:ry="15.535714"
       d="m 139.64286,315.04074 a 32.67857,15.535714 0 1 1 -65.357143,0 32.67857,15.535714 0 1 1 65.357143,0 z"
       transform="matrix(-1.5155492,0,0,3.1878791,326.60095,-539.08424)" />
    <path
       transform="matrix(0,-1.5155492,-3.1878791,0,1311.3316,1051.2572)"
       d="m 139.64286,315.04074 a 32.67857,15.535714 0 1 1 -65.357143,0 32.67857,15.535714 0 1 1 65.357143,0 z"
       sodipodi:ry="15.535714"
       sodipodi:rx="32.67857"
       sodipodi:cy="315.04074"
       sodipodi:cx="106.96429"
       id="path2989-1-0-47"
       style="color:#000000;fill:none;stroke:#ff0000;stroke-width:0.04549504000000000;stroke-linecap:butt;stroke-linejoin:miter;stroke-miterlimit:4;stroke-opacity:1;stroke-dasharray:none;stroke-dashoffset:0;marker:none;visibility:visible;display:inline;overflow:visible;enable-background:accumulate"
       sodipodi:type="arc" />
    <path
       transform="matrix(0,-1.5155492,-3.1878791,0,1453.0639,1049.9804)"
       d="m 139.64286,315.04074 a 32.67857,15.535714 0 1 1 -65.357143,0 32.67857,15.535714 0 1 1 65.357143,0 z"
       sodipodi:ry="15.535714"
       sodipodi:rx="32.67857"
       sodipodi:cy="315.04074"
       sodipodi:cx="106.96429"
       id="path2989-7-9-788"
       style="color:#000000;fill:none;stroke:#ff0000;stroke-width:0.04549504000000000;stroke-linecap:butt;stroke-linejoin:miter;stroke-miterlimit:4;stroke-opacity:1;stroke-dasharray:none;stroke-dashoffset:0;marker:none;visibility:visible;display:inline;overflow:visible;enable-background:accumulate"
       sodipodi:type="arc" />
    <path
       transform="matrix(0,-1.5155492,-3.1878791,0,1594.7961,1051.4975)"
       d="m 139.64286,315.04074 a 32.67857,15.535714 0 1 1 -65.357143,0 32.67857,15.535714 0 1 1 65.357143,0 z"
       sodipodi:ry="15.535714"
       sodipodi:rx="32.67857"
       sodipodi:cy="315.04074"
       sodipodi:cx="106.96429"
       id="path2989-1-0-4-0"
       style="color:#000000;fill:none;stroke:#ff0000;stroke-width:0.04549504000000000;stroke-linecap:butt;stroke-linejoin:miter;stroke-miterlimit:4;stroke-opacity:1;stroke-dasharray:none;stroke-dashoffset:0;marker:none;visibility:visible;display:inline;overflow:visible;enable-background:accumulate"
       sodipodi:type="arc" />
    <path
       sodipodi:type="arc"
       style="color:#000000;fill:none;stroke:#ff0000;stroke-width:0.04549504000000000;stroke-linecap:butt;stroke-linejoin:miter;stroke-miterlimit:4;stroke-opacity:1;stroke-dasharray:none;stroke-dashoffset:0;marker:none;visibility:visible;display:inline;overflow:visible;enable-background:accumulate"
       id="path2989-1-0-47-8"
       sodipodi:cx="106.96429"
       sodipodi:cy="315.04074"
       sodipodi:rx="32.67857"
       sodipodi:ry="15.535714"
       d="m 139.64286,315.04074 a 32.67857,15.535714 0 1 1 -65.357143,0 32.67857,15.535714 0 1 1 65.357143,0 z"
       transform="matrix(0,-1.5155492,-3.1878791,0,1310.2952,909.52494)" />
    <path
       sodipodi:type="arc"
       style="color:#000000;fill:none;stroke:#ff0000;stroke-width:0.04549504000000000;stroke-linecap:butt;stroke-linejoin:miter;stroke-miterlimit:4;stroke-opacity:1;stroke-dasharray:none;stroke-dashoffset:0;marker:none;visibility:visible;display:inline;overflow:visible;enable-background:accumulate"
       id="path2989-7-9-788-9"
       sodipodi:cx="106.96429"
       sodipodi:cy="315.04074"
       sodipodi:rx="32.67857"
       sodipodi:ry="15.535714"
       d="m 139.64286,315.04074 a 32.67857,15.535714 0 1 1 -65.357143,0 32.67857,15.535714 0 1 1 65.357143,0 z"
       transform="matrix(0,-1.5155492,-3.1878791,0,1452.0275,908.24814)" />
    <path
       sodipodi:type="arc"
       style="color:#000000;fill:none;stroke:#ff0000;stroke-width:0.04549504000000000;stroke-linecap:butt;stroke-linejoin:miter;stroke-miterlimit:4;stroke-opacity:1;stroke-dasharray:none;stroke-dashoffset:0;marker:none;visibility:visible;display:inline;overflow:visible;enable-background:accumulate"
       id="path2989-1-0-4-0-1"
       sodipodi:cx="106.96429"
       sodipodi:cy="315.04074"
       sodipodi:rx="32.67857"
       sodipodi:ry="15.535714"
       d="m 139.64286,315.04074 a 32.67857,15.535714 0 1 1 -65.357143,0 32.67857,15.535714 0 1 1 65.357143,0 z"
       transform="matrix(0,-1.5155492,-3.1878791,0,1593.7596,909.76524)" />
    <path
       sodipodi:type="arc"
       style="color:#000000;fill:none;stroke:#ff0000;stroke-width:0.04549504000000000;stroke-linecap:butt;stroke-linejoin:miter;stroke-miterlimit:4;stroke-opacity:1;stroke-dasharray:none;stroke-dashoffset:0;marker:none;visibility:visible;display:inline;overflow:visible;enable-background:accumulate"
       id="path2989-1-0-47-4"
       sodipodi:cx="106.96429"
       sodipodi:cy="315.04074"
       sodipodi:rx="32.67857"
       sodipodi:ry="15.535714"
       d="m 139.64286,315.04074 a 32.67857,15.535714 0 1 1 -65.357143,0 32.67857,15.535714 0 1 1 65.357143,0 z"
       transform="matrix(0,-1.5155492,-3.1878791,0,1310.2952,767.79264)" />
    <path
       sodipodi:type="arc"
       style="color:#000000;fill:none;stroke:#ff0000;stroke-width:0.04549504000000000;stroke-linecap:butt;stroke-linejoin:miter;stroke-miterlimit:4;stroke-opacity:1;stroke-dasharray:none;stroke-dashoffset:0;marker:none;visibility:visible;display:inline;overflow:visible;enable-background:accumulate"
       id="path2989-7-9-788-0"
       sodipodi:cx="106.96429"
       sodipodi:cy="315.04074"
       sodipodi:rx="32.67857"
       sodipodi:ry="15.535714"
       d="m 139.64286,315.04074 a 32.67857,15.535714 0 1 1 -65.357143,0 32.67857,15.535714 0 1 1 65.357143,0 z"
       transform="matrix(0,-1.5155492,-3.1878791,0,1452.0275,766.51584)" />
    <path
       sodipodi:type="arc"
       style="color:#000000;fill:none;stroke:#ff0000;stroke-width:0.04549504000000000;stroke-linecap:butt;stroke-linejoin:miter;stroke-miterlimit:4;stroke-opacity:1;stroke-dasharray:none;stroke-dashoffset:0;marker:none;visibility:visible;display:inline;overflow:visible;enable-background:accumulate"
       id="path2989-1-0-4-0-6"
       sodipodi:cx="106.96429"
       sodipodi:cy="315.04074"
       sodipodi:rx="32.67857"
       sodipodi:ry="15.535714"
       d="m 139.64286,315.04074 a 32.67857,15.535714 0 1 1 -65.357143,0 32.67857,15.535714 0 1 1 65.357143,0 z"
       transform="matrix(0,-1.5155492,-3.1878791,0,1593.7596,768.03294)" />
    <path
       sodipodi:type="arc"
       style="color:#000000;fill:none;stroke:#ff0000;stroke-width:0.04549504000000000;stroke-linecap:butt;stroke-linejoin:miter;stroke-miterlimit:4;stroke-opacity:1;stroke-dasharray:none;stroke-dashoffset:0;marker:none;visibility:visible;display:inline;overflow:visible;enable-background:accumulate"
       id="path2989-1-0-47-8-7"
       sodipodi:cx="106.96429"
       sodipodi:cy="315.04074"
       sodipodi:rx="32.67857"
       sodipodi:ry="15.535714"
       d="m 139.64286,315.04074 a 32.67857,15.535714 0 1 1 -65.357143,0 32.67857,15.535714 0 1 1 65.357143,0 z"
       transform="matrix(0,-1.5155492,-3.1878791,0,1309.2586,626.06037)" />
    <path
       sodipodi:type="arc"
       style="color:#000000;fill:none;stroke:#ff0000;stroke-width:0.04549504000000000;stroke-linecap:butt;stroke-linejoin:miter;stroke-miterlimit:4;stroke-opacity:1;stroke-dasharray:none;stroke-dashoffset:0;marker:none;visibility:visible;display:inline;overflow:visible;enable-background:accumulate"
       id="path2989-7-9-788-9-2"
       sodipodi:cx="106.96429"
       sodipodi:cy="315.04074"
       sodipodi:rx="32.67857"
       sodipodi:ry="15.535714"
       d="m 139.64286,315.04074 a 32.67857,15.535714 0 1 1 -65.357143,0 32.67857,15.535714 0 1 1 65.357143,0 z"
       transform="matrix(0,-1.5155492,-3.1878791,0,1450.9909,624.78357)" />
    <path
       sodipodi:type="arc"
       style="color:#000000;fill:none;stroke:#ff0000;stroke-width:0.04549504000000000;stroke-linecap:butt;stroke-linejoin:miter;stroke-miterlimit:4;stroke-opacity:1;stroke-dasharray:none;stroke-dashoffset:0;marker:none;visibility:visible;display:inline;overflow:visible;enable-background:accumulate"
       id="path2989-1-0-4-0-1-9"
       sodipodi:cx="106.96429"
       sodipodi:cy="315.04074"
       sodipodi:rx="32.67857"
       sodipodi:ry="15.535714"
       d="m 139.64286,315.04074 a 32.67857,15.535714 0 1 1 -65.357143,0 32.67857,15.535714 0 1 1 65.357143,0 z"
       transform="matrix(0,-1.5155492,-3.1878791,0,1592.7231,626.30067)" />
  </g>
</svg>
